<svg xmlns="http://www.w3.org/2000/svg" viewBox="0 0 1600 900" preserveAspectRatio="xMidYMid slice" role="img" aria-label="Scenic mountain trail at sunset">
  <defs>
    <linearGradient id="sky" x1="0" y1="0" x2="0" y2="1">
      <stop offset="0" stop-color="#f6c177"/>
      <stop offset="0.5" stop-color="#e8956b"/>
      <stop offset="1" stop-color="#c96f4e"/>
    </linearGradient>
  </defs>
  <rect width="1600" height="900" fill="url(#sky)"/>
  <circle cx="800" cy="360" r="120" fill="#fbe3b3" opacity="0.85"/>
  <path d="M0 560 L320 360 L560 540 L860 300 L1140 520 L1380 380 L1600 540 L1600 900 L0 900 Z" fill="#3d6b54" opacity="0.55"/>
  <path d="M0 660 L260 500 L520 640 L820 470 L1120 660 L1360 540 L1600 660 L1600 900 L0 900 Z" fill="#2f6b4f" opacity="0.8"/>
  <path d="M0 760 L300 680 L640 760 L980 670 L1320 760 L1600 700 L1600 900 L0 900 Z" fill="#244f3b"/>
  <path d="M780 900 C820 760 880 700 760 600 C700 560 840 520 820 460" fill="none" stroke="#f3e7cf" stroke-width="22" stroke-linecap="round" opacity="0.55"/>
</svg>
